<?xml version="1.0" encoding="utf-8"?>
<svg xmlns="http://www.w3.org/2000/svg" width="629" height="199" viewBox="0 0 629 199" fill="none">
<path d="M276.705 120.718C274.583 114.832 272.495 108.946 270.442 103.06C268.389 97.1736 266.301 91.3216 264.179 85.5038C262.126 91.3216 260.073 97.1736 258.019 103.06C255.966 108.946 253.947 114.832 251.962 120.718H276.705ZM307.094 149.67C307.094 150.766 306.581 151.313 305.554 151.313C304.869 151.313 304.117 151.279 303.295 151.21C302.542 151.21 301.789 151.176 301.037 151.108C299.531 151.039 297.991 151.005 296.417 151.005C294.911 151.005 293.371 151.005 291.797 151.005C291.044 151.005 290.257 151.005 289.435 151.005C288.682 151.005 287.895 151.005 287.074 151.005C285.568 151.005 284.028 151.074 282.454 151.21C280.88 151.416 279.305 151.518 277.731 151.518C277.252 151.518 276.91 151.279 276.705 150.8C276.499 150.252 276.397 149.773 276.397 149.362C276.397 149.02 276.568 148.712 276.91 148.438C277.252 148.165 277.56 148.028 277.834 148.028L282.865 148.13C283.412 148.13 283.994 148.028 284.61 147.822C285.226 147.549 285.534 147.07 285.534 146.385C285.534 146.248 285.294 145.495 284.815 144.126C284.405 142.689 283.857 140.978 283.173 138.993C282.488 137.008 281.769 135.023 281.017 133.038C280.264 130.985 279.613 129.206 279.066 127.7C278.518 126.126 278.142 125.099 277.937 124.62H250.935C250.73 125.236 250.319 126.331 249.703 127.905C249.156 129.479 248.505 131.259 247.753 133.244C247 135.229 246.281 137.214 245.597 139.198C244.912 141.115 244.33 142.792 243.851 144.229C243.441 145.598 243.235 146.454 243.235 146.796C243.235 147.686 243.714 148.233 244.673 148.438C245.699 148.644 246.521 148.746 247.137 148.746C247.889 148.746 248.608 148.712 249.293 148.644C250.045 148.507 250.764 148.438 251.449 148.438C252.065 148.438 252.407 148.678 252.475 149.157C252.612 149.568 252.681 150.013 252.681 150.492C252.544 150.902 252.304 151.142 251.962 151.21C251.62 151.279 251.277 151.313 250.935 151.313C248.95 151.313 246.931 151.279 244.878 151.21C242.825 151.21 240.805 151.21 238.821 151.21C237.315 151.21 235.809 151.245 234.303 151.313C232.866 151.382 231.429 151.416 229.991 151.416C228.965 151.416 228.451 150.868 228.451 149.773C228.451 149.157 228.759 148.781 229.375 148.644C229.991 148.507 230.676 148.473 231.429 148.541C232.25 148.541 232.832 148.541 233.174 148.541C234.132 148.541 234.919 148.267 235.535 147.72C236.151 147.172 236.665 146.522 237.075 145.769C237.349 145.153 237.999 143.51 239.026 140.841C240.121 138.172 241.421 134.818 242.927 130.78C244.433 126.742 246.041 122.395 247.753 117.741C249.464 113.018 251.141 108.364 252.783 103.778C254.494 99.1242 256.034 94.8465 257.403 90.9451C258.772 87.0438 259.867 83.8269 260.689 81.2945C261.51 78.762 261.921 77.3247 261.921 76.9825C261.921 76.8456 261.852 76.7087 261.715 76.5718C261.647 76.3665 261.613 76.1954 261.613 76.0585C261.613 75.8531 261.715 75.7162 261.921 75.6478C263.495 75.3056 265.172 75.1002 266.951 75.0318C268.731 74.8949 270.408 74.7238 271.982 74.5185L298.675 146.077C298.881 146.625 299.291 147.104 299.907 147.514C300.592 147.857 301.242 148.028 301.858 148.028C302.474 148.028 303.056 148.028 303.603 148.028C304.219 147.959 304.835 147.925 305.451 147.925C306.204 147.925 306.649 148.062 306.786 148.336C306.991 148.541 307.094 148.986 307.094 149.67Z" fill="white"/>
<path d="M350.77 105.113C350.77 106.071 350.462 106.824 349.846 107.372C349.23 107.919 348.443 108.193 347.484 108.193C346.252 108.193 345.363 107.851 344.815 107.166C344.336 106.482 343.925 105.695 343.583 104.805C343.309 103.915 342.899 103.128 342.351 102.444C341.872 101.759 340.982 101.417 339.682 101.417C338.381 101.417 336.978 101.999 335.472 103.162C334.035 104.326 332.666 105.763 331.366 107.474C330.065 109.186 328.97 110.897 328.08 112.608C327.259 114.319 326.814 115.722 326.746 116.817C326.677 118.254 326.643 119.726 326.643 121.232C326.643 122.669 326.643 124.106 326.643 125.544C326.643 128.829 326.643 132.149 326.643 135.502C326.711 138.788 326.746 142.073 326.746 145.358C326.746 146.248 327.156 146.933 327.978 147.412C328.799 147.822 329.586 148.028 330.339 148.028C331.023 148.028 331.674 147.994 332.29 147.925C332.906 147.857 333.556 147.822 334.24 147.822C334.583 147.822 334.891 147.994 335.164 148.336C335.438 148.678 335.575 148.986 335.575 149.26C335.575 149.67 335.404 150.115 335.062 150.594C334.788 151.005 334.446 151.21 334.035 151.21C331.845 151.21 329.655 151.176 327.464 151.108C325.274 150.971 323.084 150.902 320.894 150.902C318.772 150.902 316.65 150.937 314.528 151.005C312.407 151.074 310.251 151.108 308.06 151.108C307.718 151.108 307.41 150.902 307.136 150.492C306.931 150.081 306.828 149.739 306.828 149.465C306.828 148.575 307.171 148.062 307.855 147.925C308.608 147.788 309.429 147.754 310.319 147.822C311.209 147.891 312.03 147.925 312.783 147.925C314.699 147.925 315.692 147.035 315.76 145.256C315.966 142.107 316.068 138.959 316.068 135.81C316.068 132.662 316.068 129.514 316.068 126.365V118.768C316.068 116.372 316.034 113.977 315.966 111.581C315.966 109.186 315.863 106.79 315.658 104.394C315.589 103.231 315.281 102.375 314.734 101.828C314.186 101.212 313.296 100.904 312.064 100.904C311.517 100.904 310.969 100.972 310.422 101.109C309.874 101.246 309.327 101.314 308.779 101.314C307.684 101.314 307.136 100.835 307.136 99.8771C307.136 99.2611 307.444 98.8505 308.06 98.6451C308.745 98.3714 309.463 98.2002 310.216 98.1318C311.038 98.0634 311.791 97.9607 312.475 97.8238C315.213 97.4131 317.848 96.8998 320.38 96.2838C320.586 96.2838 321.167 96.1811 322.126 95.9758C323.084 95.702 323.597 95.5651 323.666 95.5651C324.624 95.5651 325.343 95.9758 325.822 96.7971C325.959 97.0025 326.061 97.6527 326.13 98.7478C326.198 99.8429 326.232 101.109 326.232 102.546C326.232 103.915 326.232 105.216 326.232 106.448C326.232 107.611 326.232 108.398 326.232 108.809C327.738 106.482 329.415 104.292 331.263 102.238C333.179 100.185 335.301 98.5082 337.628 97.2078C340.024 95.9074 342.693 95.2571 345.636 95.2571C347.553 95.2571 348.751 95.7705 349.23 96.7971C349.777 97.7554 350.154 99.0216 350.359 100.596C350.496 101.28 350.599 102.033 350.667 102.854C350.736 103.607 350.77 104.36 350.77 105.113Z" fill="white"/>
<path d="M397.62 121.95C397.62 119.623 397.415 117.228 397.004 114.764C396.594 112.231 395.841 109.904 394.746 107.782C393.719 105.592 392.282 103.813 390.434 102.444C388.586 101.075 386.224 100.39 383.35 100.39C382.118 100.39 380.646 100.767 378.935 101.52C377.292 102.273 376.026 103.06 375.136 103.881C373.836 105.113 372.809 106.516 372.056 108.09C371.372 109.596 371.03 111.239 371.03 113.018C371.03 116.372 370.995 119.794 370.927 123.285C370.927 126.707 370.927 130.13 370.927 133.552C370.927 134.305 370.893 135.537 370.824 137.248C370.824 138.959 370.858 140.636 370.927 142.278C371.064 143.853 371.269 144.948 371.543 145.564C372.022 146.454 372.98 147.104 374.418 147.514C375.923 147.925 377.155 148.13 378.114 148.13C381.673 148.13 384.684 147.378 387.148 145.872C389.681 144.298 391.7 142.244 393.206 139.712C394.78 137.111 395.909 134.27 396.594 131.19C397.278 128.11 397.62 125.03 397.62 121.95ZM409.119 122.053C409.119 127.666 407.887 132.662 405.423 137.042C402.959 141.423 399.537 144.879 395.156 147.412C390.844 149.944 385.848 151.21 380.167 151.21C377.771 151.21 375.307 150.868 372.775 150.184C370.311 149.431 367.984 149.054 365.794 149.054C365.246 149.054 364.698 149.089 364.151 149.157C363.672 149.226 363.158 149.26 362.611 149.26C361.037 149.26 360.25 148.575 360.25 147.206C360.25 146.933 360.25 146.693 360.25 146.488C360.318 146.214 360.352 145.94 360.352 145.666C360.694 143.066 360.866 140.259 360.866 137.248C360.866 134.168 360.866 131.327 360.866 128.726C360.866 120.787 360.831 112.847 360.763 104.908C360.694 96.9682 360.626 89.0629 360.558 81.1918C360.558 80.1651 360.455 79.3096 360.25 78.6251C360.113 77.9407 359.394 77.5985 358.094 77.5985C357.135 77.5985 356.177 77.6669 355.219 77.8038C354.329 77.8722 353.405 77.9065 352.447 77.9065C352.036 77.9065 351.626 77.838 351.215 77.7011C350.873 77.4958 350.702 77.1536 350.702 76.6745C350.702 76.1954 350.907 75.8531 351.318 75.6478C351.797 75.374 352.207 75.2029 352.55 75.1345C354.329 74.7238 356.109 74.3816 357.888 74.1078C359.736 73.7656 361.55 73.4234 363.33 73.0811C364.151 72.9442 365.246 72.7047 366.615 72.3625C367.984 71.9518 369.01 71.7465 369.695 71.7465C370.516 71.7465 370.927 72.0545 370.927 72.6705C370.927 73.218 370.927 73.7656 370.927 74.3131V101.93C373.049 100.219 375.513 98.8163 378.319 97.7211C381.125 96.626 383.897 96.0785 386.635 96.0785C391.631 96.0785 395.772 97.3105 399.058 99.7745C402.411 102.17 404.91 105.353 406.552 109.322C408.263 113.224 409.119 117.467 409.119 122.053Z" fill="white"/>
<path d="M425.797 144.802C425.797 146.787 425.387 149.011 424.565 151.475C423.744 153.939 422.683 156.301 421.383 158.559C420.082 160.818 418.713 162.666 417.276 164.103L415.017 163.385C416.181 161.4 417.242 158.97 418.2 156.095C419.158 153.289 419.637 150.722 419.637 148.395C419.295 148.738 418.85 148.977 418.303 149.114C417.823 149.251 417.344 149.319 416.865 149.319C415.291 149.319 413.888 148.669 412.656 147.369C411.424 146.068 410.808 144.631 410.808 143.057C410.808 140.798 411.458 138.984 412.759 137.615C414.127 136.246 415.941 135.562 418.2 135.562C421.006 135.562 422.957 136.452 424.052 138.231C425.216 140.011 425.797 142.201 425.797 144.802Z" fill="white"/>
<path d="M480.747 77.1882C480.747 78.4202 480.2 79.0362 479.105 79.0362C478.352 79.0362 477.599 79.0362 476.846 79.0362C476.093 78.9678 475.34 78.9336 474.587 78.9336C473.903 78.9336 473.15 79.2073 472.329 79.7549C471.576 80.234 471.199 80.8842 471.199 81.7055V145.564C471.199 146.386 471.542 147.002 472.226 147.412C472.911 147.754 473.595 147.926 474.279 147.926C475.032 147.926 475.785 147.926 476.538 147.926C477.359 147.857 478.147 147.823 478.899 147.823C479.995 147.823 480.542 148.302 480.542 149.26C480.542 149.808 480.474 150.287 480.337 150.698C480.2 151.04 479.823 151.211 479.207 151.211C476.812 151.211 474.382 151.142 471.918 151.006C469.523 150.8 467.093 150.698 464.629 150.698C463.534 150.698 462.404 150.732 461.241 150.8C460.077 150.8 458.914 150.834 457.75 150.903C456.587 150.971 455.389 151.074 454.157 151.211C452.993 151.348 451.83 151.416 450.666 151.416C450.255 151.416 449.913 151.245 449.639 150.903C449.366 150.492 449.229 150.082 449.229 149.671C449.229 149.192 449.366 148.781 449.639 148.439C449.982 148.097 450.392 147.926 450.871 147.926C451.624 147.926 452.377 147.96 453.13 148.028C453.951 148.028 454.773 148.028 455.594 148.028C456.279 148.028 457.1 147.857 458.058 147.515C459.016 147.104 459.495 146.454 459.495 145.564V81.6029C459.495 80.3709 458.948 79.618 457.853 79.3442C456.758 79.002 455.526 78.8651 454.157 78.9336C452.856 79.002 451.83 79.0362 451.077 79.0362C450.119 79.0362 449.639 78.4887 449.639 77.3935C449.639 76.846 449.674 76.4011 449.742 76.0589C449.879 75.7167 450.29 75.5455 450.974 75.5455C453.164 75.5455 455.355 75.614 457.545 75.7509C459.803 75.8878 462.028 75.9562 464.218 75.9562C465.792 75.9562 467.332 75.9562 468.838 75.9562C470.412 75.9562 471.952 75.922 473.458 75.8535C474.416 75.8535 475.375 75.8193 476.333 75.7509C477.359 75.614 478.318 75.5455 479.207 75.5455C479.687 75.5455 480.063 75.7167 480.337 76.0589C480.611 76.4011 480.747 76.7776 480.747 77.1882Z" fill="white"/>
<path d="M548.208 149.671C548.208 150.287 548.003 150.698 547.592 150.903C547.182 151.108 546.703 151.211 546.155 151.211C544.033 151.211 541.877 151.177 539.687 151.108C537.497 151.04 535.307 151.006 533.116 151.006C531.405 151.006 529.626 151.04 527.778 151.108C525.998 151.177 524.219 151.211 522.439 151.211C522.165 151.211 521.891 151.04 521.618 150.698C521.344 150.355 521.207 150.047 521.207 149.774C521.207 148.884 521.549 148.37 522.234 148.234C522.987 148.097 523.705 148.062 524.39 148.131C525.142 148.199 525.861 148.234 526.546 148.234C528.325 148.234 529.249 147.344 529.318 145.564C529.455 143.99 529.489 142.416 529.42 140.842C529.42 139.267 529.42 137.727 529.42 136.222V123.491C529.42 122.054 529.386 120.137 529.318 117.742C529.318 115.278 529.249 112.882 529.112 110.555C528.975 108.159 528.702 106.346 528.291 105.114C527.127 101.623 524.8 99.8776 521.31 99.8776C519.256 99.8776 517.545 100.186 516.176 100.802C514.876 101.349 513.37 102.205 511.659 103.368C510.632 104.121 509.606 104.942 508.579 105.832C507.621 106.722 506.731 107.68 505.91 108.707C505.91 114.867 505.91 121.027 505.91 127.187C505.91 133.278 505.91 139.37 505.91 145.462C505.91 146.351 506.286 147.036 507.039 147.515C507.792 147.926 508.545 148.131 509.298 148.131C509.845 148.131 510.358 148.097 510.838 148.028C511.385 147.96 511.898 147.926 512.378 147.926C512.651 147.926 512.925 148.097 513.199 148.439C513.473 148.781 513.61 149.089 513.61 149.363C513.61 149.842 513.404 150.253 512.994 150.595C512.651 150.869 512.275 151.006 511.864 151.006C509.742 151.006 507.621 150.971 505.499 150.903C503.377 150.834 501.255 150.8 499.134 150.8C497.422 150.8 495.711 150.834 494 150.903C492.289 150.971 490.578 151.006 488.867 151.006C488.456 151.006 488.114 150.869 487.84 150.595C487.566 150.253 487.43 149.91 487.43 149.568C487.43 148.815 487.772 148.37 488.456 148.234C489.141 148.028 489.894 147.96 490.715 148.028C491.536 148.097 492.186 148.131 492.666 148.131C494.308 148.131 495.198 147.241 495.335 145.462C495.403 144.503 495.438 143.545 495.438 142.587C495.438 141.629 495.438 140.705 495.438 139.815C495.438 133.929 495.403 128.008 495.335 122.054C495.335 116.099 495.301 110.144 495.232 104.19C495.232 103.437 495.095 102.581 494.822 101.623C494.548 100.665 493.932 100.186 492.974 100.186C492.084 100.186 491.228 100.322 490.407 100.596C489.586 100.87 488.73 101.007 487.84 101.007C486.95 101.007 486.506 100.596 486.506 99.7749C486.506 99.2958 486.574 98.9878 486.711 98.8509C486.848 98.714 487.156 98.6113 487.635 98.5429C488.867 98.2007 490.133 97.9611 491.434 97.8242C492.734 97.6189 494.034 97.3793 495.335 97.1056C496.498 96.8318 497.662 96.558 498.826 96.2842C499.989 95.942 501.153 95.7709 502.316 95.7709C503.138 95.7709 503.719 96.0104 504.062 96.4896C504.404 96.9687 504.643 97.7216 504.78 98.7482C504.986 99.7749 505.123 100.802 505.191 101.828C505.328 102.855 505.396 103.676 505.396 104.292C507.655 102.17 510.324 100.22 513.404 98.4402C516.484 96.5922 519.599 95.6682 522.747 95.6682C525.143 95.6682 527.538 95.942 529.934 96.4896C532.329 97.0371 534.383 98.0638 536.094 99.5696C537.873 101.007 538.968 103.129 539.379 105.935C539.516 107.098 539.653 108.33 539.79 109.631C539.927 110.863 539.995 112.061 539.995 113.224C539.995 118.563 539.995 123.902 539.995 129.24C539.995 134.579 539.995 139.918 539.995 145.256C539.995 146.42 540.303 147.207 540.919 147.618C541.535 148.028 542.391 148.234 543.486 148.234C544.033 148.234 544.547 148.199 545.026 148.131C545.573 148.062 546.121 148.028 546.668 148.028C547.079 148.028 547.421 148.234 547.695 148.644C548.037 148.986 548.208 149.329 548.208 149.671Z" fill="white"/>
<path d="M601.475 138.172C601.475 138.309 601.441 138.446 601.373 138.583C601.373 138.72 601.339 138.857 601.27 138.994C600.654 139.952 599.662 141.115 598.293 142.484C596.924 143.853 595.76 144.914 594.802 145.667C592.68 147.173 590.079 148.473 586.999 149.568C583.988 150.595 581.113 151.108 578.375 151.108C573.174 151.108 568.554 149.979 564.515 147.72C560.546 145.462 557.431 142.347 555.173 138.378C552.914 134.339 551.785 129.719 551.785 124.518C551.785 119.453 552.811 114.696 554.865 110.247C556.918 105.798 560.135 102.205 564.515 99.4669C566.5 98.2349 568.691 97.2767 571.086 96.5922C573.55 95.9078 575.946 95.5656 578.273 95.5656C579.642 95.5656 580.976 95.7024 582.277 95.9762C583.646 96.25 584.98 96.6607 586.281 97.2082C587.239 97.5504 588.403 98.0638 589.771 98.7482C591.14 99.4327 592.27 99.7749 593.159 99.7749C593.775 99.7749 594.357 99.5353 594.905 99.0562C595.521 98.5087 596 98.2349 596.342 98.2349C596.616 98.2349 596.821 98.3718 596.958 98.6456C597.095 99.33 597.163 100.049 597.163 100.802C597.163 101.554 597.163 102.273 597.163 102.958C597.3 104.669 597.403 106.346 597.471 107.988C597.608 109.631 597.711 111.274 597.779 112.916C597.779 113.053 597.779 113.224 597.779 113.43C597.779 113.566 597.779 113.703 597.779 113.84C597.779 114.525 597.471 115.038 596.855 115.38C596.308 115.654 595.76 115.791 595.213 115.791C594.597 115.791 594.152 115.517 593.878 114.97C593.604 114.354 593.399 113.806 593.262 113.327C592.715 111.274 591.927 109.118 590.901 106.859C589.943 104.6 588.642 102.752 586.999 101.315C586.11 100.494 584.98 99.7749 583.611 99.1589C582.311 98.4744 581.011 98.1322 579.71 98.1322C576.562 98.1322 573.892 98.9878 571.702 100.699C569.512 102.342 567.732 104.498 566.363 107.167C564.995 109.768 564.002 112.54 563.386 115.483C562.77 118.426 562.462 121.198 562.462 123.799C562.462 126.331 562.736 128.966 563.283 131.704C563.899 134.442 564.858 136.974 566.158 139.302C567.459 141.629 569.17 143.545 571.291 145.051C573.413 146.488 576.014 147.207 579.094 147.207C582.106 147.207 584.878 146.762 587.41 145.872C590.011 144.914 592.407 143.374 594.597 141.252C595.281 140.636 595.897 139.952 596.445 139.199C596.992 138.446 597.608 137.727 598.293 137.043C598.703 136.632 599.114 136.427 599.525 136.427C600.072 136.427 600.517 136.598 600.859 136.94C601.27 137.214 601.475 137.625 601.475 138.172Z" fill="white"/>
<path d="M628.841 143.716C628.841 145.838 628.054 147.583 626.48 148.952C624.905 150.253 623.092 150.903 621.038 150.903C618.985 150.903 617.171 150.253 615.597 148.952C614.023 147.583 613.236 145.838 613.236 143.716C613.236 141.526 614.023 139.781 615.597 138.48C617.171 137.18 618.985 136.53 621.038 136.53C623.092 136.53 624.905 137.18 626.48 138.48C628.054 139.781 628.841 141.526 628.841 143.716Z" fill="#CE2C39"/>
<path d="M101.894 0.0589397C108.84 0.352433 115.128 1.24596 121.643 2.86343C142.755 8.10718 161.643 20.4339 175.202 37.8217C182.964 47.7809 188.82 59.2533 192.29 71.3256C194.293 78.3108 195.46 85.0154 195.995 92.7115C196.145 94.7986 196.203 101.099 196.099 103.395C195.525 116.087 192.721 128.133 187.705 139.449C185.762 143.851 184.744 145.508 183.016 147.106C179.083 150.745 173.265 151.704 168.178 149.551C164.852 148.149 162.152 145.312 160.873 141.881C160.691 141.392 144.405 94.4007 133.024 61.5164C131.589 57.3814 130.826 56.0314 128.857 54.1465C127.213 52.5747 125.23 51.479 122.987 50.905C121.741 50.5789 120.75 50.455 119.426 50.455C117.162 50.455 115.225 50.8985 113.262 51.8572C111.064 52.9334 109.095 54.7139 107.816 56.7944C106.962 58.1902 107.51 56.6314 87.174 115.343C76.4452 146.303 67.2882 172.744 66.8186 174.1C66.3164 175.548 65.8012 176.911 65.5664 177.394C63.5902 181.49 59.6378 184.353 55.0985 184.986C54.0941 185.129 52.2157 185.129 51.2635 184.986C49.5286 184.731 47.8264 184.151 46.385 183.31C45.0023 182.514 42.1065 180.525 39.7846 178.796C36.041 176.005 32.943 173.344 29.5515 169.992C26.9622 167.435 25.1948 165.524 23.036 162.935C10.4679 147.895 2.68057 129.581 0.547854 110.034C0.117397 106.108 0 103.734 0 99.077C0 94.4268 0.117397 92.0528 0.547854 88.12C2.10011 73.9018 6.64599 60.2903 13.9181 48.094C18.3335 40.6914 23.3621 34.2803 29.5515 28.1691C37.078 20.7404 45.6154 14.6423 54.9876 10.0247C67.4904 3.86131 80.6911 0.548095 94.8114 0.0328514C96.2266 -0.0193251 100.446 -0.00628099 101.894 0.0589397Z" fill="#CE2C39"/>
<path d="M121.462 151.775C123.875 152.14 126.151 153.144 128.029 154.657C129.223 155.623 142.274 167.375 142.724 167.891C144.902 170.389 145.985 173.05 146.2 176.428C146.252 177.256 146.148 178.685 145.959 179.657C145.43 182.396 144.191 184.737 142.235 186.707C140.513 188.429 139.423 189.081 135.523 190.705C125.831 194.749 115.637 197.168 105.15 197.931C101.328 198.205 96.7365 198.244 95.4582 198.01C92.595 197.475 90.3579 196.347 88.3817 194.442C85.1142 191.292 83.5685 186.544 84.3642 182.07C84.8011 179.617 86.0142 177.211 87.7687 175.332C88.2057 174.869 109.611 155.649 110.766 154.69C112.716 153.066 115.448 151.951 118.129 151.677C118.925 151.599 120.614 151.644 121.462 151.775Z" fill="#CE2C39"/>
</svg>