<?xml version="1.0" encoding="utf-8"?>
<svg xmlns="http://www.w3.org/2000/svg" width="629" height="199" viewBox="0 0 629 199" fill="none">
<path d="M276.705 121.137C274.583 115.25 272.495 109.364 270.442 103.478C268.389 97.5917 266.301 91.7397 264.179 85.9219C262.126 91.7397 260.073 97.5917 258.019 103.478C255.966 109.364 253.947 115.25 251.962 121.137H276.705ZM307.094 150.089C307.094 151.184 306.581 151.731 305.554 151.731C304.869 151.731 304.117 151.697 303.295 151.629C302.542 151.629 301.789 151.594 301.037 151.526C299.531 151.457 297.991 151.423 296.417 151.423C294.911 151.423 293.371 151.423 291.797 151.423C291.044 151.423 290.257 151.423 289.435 151.423C288.682 151.423 287.895 151.423 287.074 151.423C285.568 151.423 284.028 151.492 282.454 151.629C280.88 151.834 279.305 151.937 277.731 151.937C277.252 151.937 276.91 151.697 276.705 151.218C276.499 150.67 276.397 150.191 276.397 149.781C276.397 149.438 276.568 149.13 276.91 148.857C277.252 148.583 277.56 148.446 277.834 148.446L282.865 148.549C283.412 148.549 283.994 148.446 284.61 148.241C285.226 147.967 285.534 147.488 285.534 146.803C285.534 146.666 285.294 145.913 284.815 144.545C284.405 143.107 283.857 141.396 283.173 139.411C282.488 137.426 281.769 135.441 281.017 133.457C280.264 131.403 279.613 129.624 279.066 128.118C278.518 126.544 278.142 125.517 277.937 125.038H250.935C250.73 125.654 250.319 126.749 249.703 128.323C249.156 129.897 248.505 131.677 247.753 133.662C247 135.647 246.281 137.632 245.597 139.617C244.912 141.533 244.33 143.21 243.851 144.647C243.441 146.016 243.235 146.872 243.235 147.214C243.235 148.104 243.714 148.651 244.673 148.857C245.699 149.062 246.521 149.165 247.137 149.165C247.889 149.165 248.608 149.13 249.293 149.062C250.045 148.925 250.764 148.857 251.449 148.857C252.065 148.857 252.407 149.096 252.475 149.575C252.612 149.986 252.681 150.431 252.681 150.91C252.544 151.321 252.304 151.56 251.962 151.629C251.62 151.697 251.277 151.731 250.935 151.731C248.95 151.731 246.931 151.697 244.878 151.629C242.825 151.629 240.805 151.629 238.821 151.629C237.315 151.629 235.809 151.663 234.303 151.731C232.866 151.8 231.429 151.834 229.991 151.834C228.965 151.834 228.451 151.286 228.451 150.191C228.451 149.575 228.759 149.199 229.375 149.062C229.991 148.925 230.676 148.891 231.429 148.959C232.25 148.959 232.832 148.959 233.174 148.959C234.132 148.959 234.919 148.685 235.535 148.138C236.151 147.59 236.665 146.94 237.075 146.187C237.349 145.571 237.999 143.929 239.026 141.259C240.121 138.59 241.421 135.236 242.927 131.198C244.433 127.16 246.041 122.813 247.753 118.159C249.464 113.437 251.141 108.782 252.783 104.197C254.494 99.5423 256.034 95.2646 257.403 91.3632C258.772 87.4619 259.867 84.245 260.689 81.7126C261.51 79.1801 261.921 77.7428 261.921 77.4006C261.921 77.2637 261.852 77.1268 261.715 76.9899C261.647 76.7846 261.613 76.6134 261.613 76.4766C261.613 76.2712 261.715 76.1343 261.921 76.0659C263.495 75.7237 265.172 75.5183 266.951 75.4499C268.731 75.313 270.408 75.1419 271.982 74.9366L298.675 146.495C298.881 147.043 299.291 147.522 299.907 147.933C300.592 148.275 301.242 148.446 301.858 148.446C302.474 148.446 303.056 148.446 303.603 148.446C304.219 148.377 304.835 148.343 305.451 148.343C306.204 148.343 306.649 148.48 306.786 148.754C306.991 148.959 307.094 149.404 307.094 150.089Z" fill="black"/>
<path d="M350.77 105.531C350.77 106.489 350.462 107.242 349.846 107.79C349.23 108.337 348.443 108.611 347.484 108.611C346.252 108.611 345.363 108.269 344.815 107.585C344.336 106.9 343.925 106.113 343.583 105.223C343.309 104.333 342.899 103.546 342.351 102.862C341.872 102.177 340.982 101.835 339.682 101.835C338.381 101.835 336.978 102.417 335.472 103.581C334.035 104.744 332.666 106.181 331.366 107.893C330.065 109.604 328.97 111.315 328.08 113.026C327.259 114.737 326.814 116.14 326.746 117.235C326.677 118.673 326.643 120.144 326.643 121.65C326.643 123.087 326.643 124.525 326.643 125.962C326.643 129.247 326.643 132.567 326.643 135.921C326.711 139.206 326.746 142.491 326.746 145.777C326.746 146.666 327.156 147.351 327.978 147.83C328.799 148.241 329.586 148.446 330.339 148.446C331.023 148.446 331.674 148.412 332.29 148.343C332.906 148.275 333.556 148.241 334.24 148.241C334.583 148.241 334.891 148.412 335.164 148.754C335.438 149.096 335.575 149.404 335.575 149.678C335.575 150.089 335.404 150.533 335.062 151.013C334.788 151.423 334.446 151.629 334.035 151.629C331.845 151.629 329.655 151.594 327.464 151.526C325.274 151.389 323.084 151.321 320.894 151.321C318.772 151.321 316.65 151.355 314.528 151.423C312.407 151.492 310.251 151.526 308.06 151.526C307.718 151.526 307.41 151.321 307.136 150.91C306.931 150.499 306.828 150.157 306.828 149.883C306.828 148.993 307.171 148.48 307.855 148.343C308.608 148.206 309.429 148.172 310.319 148.241C311.209 148.309 312.03 148.343 312.783 148.343C314.699 148.343 315.692 147.453 315.76 145.674C315.966 142.525 316.068 139.377 316.068 136.229C316.068 133.08 316.068 129.932 316.068 126.783V119.186C316.068 116.79 316.034 114.395 315.966 111.999C315.966 109.604 315.863 107.208 315.658 104.813C315.589 103.649 315.281 102.793 314.734 102.246C314.186 101.63 313.296 101.322 312.064 101.322C311.517 101.322 310.969 101.39 310.422 101.527C309.874 101.664 309.327 101.733 308.779 101.733C307.684 101.733 307.136 101.253 307.136 100.295C307.136 99.6792 307.444 99.2686 308.06 99.0632C308.745 98.7894 309.463 98.6183 310.216 98.5499C311.038 98.4815 311.791 98.3788 312.475 98.2419C315.213 97.8312 317.848 97.3179 320.38 96.7019C320.586 96.7019 321.167 96.5992 322.126 96.3939C323.084 96.1201 323.597 95.9832 323.666 95.9832C324.624 95.9832 325.343 96.3939 325.822 97.2152C325.959 97.4206 326.061 98.0708 326.13 99.1659C326.198 100.261 326.232 101.527 326.232 102.965C326.232 104.333 326.232 105.634 326.232 106.866C326.232 108.029 326.232 108.817 326.232 109.227C327.738 106.9 329.415 104.71 331.263 102.657C333.179 100.603 335.301 98.9263 337.628 97.6259C340.024 96.3254 342.693 95.6752 345.636 95.6752C347.553 95.6752 348.751 96.1886 349.23 97.2152C349.777 98.1735 350.154 99.4397 350.359 101.014C350.496 101.698 350.599 102.451 350.667 103.273C350.736 104.025 350.77 104.778 350.77 105.531Z" fill="black"/>
<path d="M397.62 122.369C397.62 120.041 397.415 117.646 397.004 115.182C396.594 112.649 395.841 110.322 394.746 108.201C393.719 106.01 392.282 104.231 390.434 102.862C388.586 101.493 386.224 100.809 383.35 100.809C382.118 100.809 380.646 101.185 378.935 101.938C377.292 102.691 376.026 103.478 375.136 104.299C373.836 105.531 372.809 106.934 372.056 108.509C371.372 110.014 371.03 111.657 371.03 113.437C371.03 116.79 370.995 120.213 370.927 123.703C370.927 127.125 370.927 130.548 370.927 133.97C370.927 134.723 370.893 135.955 370.824 137.666C370.824 139.377 370.858 141.054 370.927 142.697C371.064 144.271 371.269 145.366 371.543 145.982C372.022 146.872 372.98 147.522 374.418 147.933C375.923 148.343 377.155 148.549 378.114 148.549C381.673 148.549 384.684 147.796 387.148 146.29C389.681 144.716 391.7 142.662 393.206 140.13C394.78 137.529 395.909 134.689 396.594 131.609C397.278 128.529 397.62 125.449 397.62 122.369ZM409.119 122.471C409.119 128.084 407.887 133.08 405.423 137.461C402.959 141.841 399.537 145.297 395.156 147.83C390.844 150.362 385.848 151.629 380.167 151.629C377.771 151.629 375.307 151.286 372.775 150.602C370.311 149.849 367.984 149.473 365.794 149.473C365.246 149.473 364.698 149.507 364.151 149.575C363.672 149.644 363.158 149.678 362.611 149.678C361.037 149.678 360.25 148.993 360.25 147.625C360.25 147.351 360.25 147.111 360.25 146.906C360.318 146.632 360.352 146.358 360.352 146.085C360.694 143.484 360.866 140.677 360.866 137.666C360.866 134.586 360.866 131.745 360.866 129.145C360.866 121.205 360.831 113.265 360.763 105.326C360.694 97.3863 360.626 89.481 360.558 81.6099C360.558 80.5832 360.455 79.7277 360.25 79.0432C360.113 78.3588 359.394 78.0166 358.094 78.0166C357.135 78.0166 356.177 78.085 355.219 78.2219C354.329 78.2903 353.405 78.3246 352.447 78.3246C352.036 78.3246 351.626 78.2561 351.215 78.1192C350.873 77.9139 350.702 77.5717 350.702 77.0926C350.702 76.6134 350.907 76.2712 351.318 76.0659C351.797 75.7921 352.207 75.621 352.55 75.5526C354.329 75.1419 356.109 74.7997 357.888 74.5259C359.736 74.1837 361.55 73.8414 363.33 73.4992C364.151 73.3623 365.246 73.1228 366.615 72.7806C367.984 72.3699 369.01 72.1646 369.695 72.1646C370.516 72.1646 370.927 72.4726 370.927 73.0886C370.927 73.6361 370.927 74.1837 370.927 74.7312V102.349C373.049 100.637 375.513 99.2343 378.319 98.1392C381.125 97.0441 383.897 96.4966 386.635 96.4966C391.631 96.4966 395.772 97.7286 399.058 100.193C402.411 102.588 404.91 105.771 406.552 109.741C408.263 113.642 409.119 117.885 409.119 122.471Z" fill="black"/>
<path d="M425.797 145.22C425.797 147.205 425.387 149.429 424.565 151.893C423.744 154.357 422.683 156.719 421.383 158.977C420.082 161.236 418.713 163.084 417.276 164.521L415.017 163.803C416.181 161.818 417.242 159.388 418.2 156.513C419.158 153.707 419.637 151.141 419.637 148.813C419.295 149.156 418.85 149.395 418.303 149.532C417.823 149.669 417.344 149.737 416.865 149.737C415.291 149.737 413.888 149.087 412.656 147.787C411.424 146.486 410.808 145.049 410.808 143.475C410.808 141.216 411.458 139.402 412.759 138.033C414.127 136.665 415.941 135.98 418.2 135.98C421.006 135.98 422.957 136.87 424.052 138.649C425.215 140.429 425.797 142.619 425.797 145.22Z" fill="black"/>
<path d="M480.747 77.6063C480.747 78.8383 480.2 79.4543 479.105 79.4543C478.352 79.4543 477.599 79.4543 476.846 79.4543C476.093 79.3859 475.34 79.3516 474.587 79.3516C473.903 79.3516 473.15 79.6254 472.329 80.173C471.576 80.6521 471.199 81.3023 471.199 82.1236V145.982C471.199 146.804 471.542 147.42 472.226 147.83C472.911 148.173 473.595 148.344 474.279 148.344C475.032 148.344 475.785 148.344 476.538 148.344C477.359 148.275 478.147 148.241 478.899 148.241C479.995 148.241 480.542 148.72 480.542 149.678C480.542 150.226 480.474 150.705 480.337 151.116C480.2 151.458 479.823 151.629 479.207 151.629C476.812 151.629 474.382 151.561 471.918 151.424C469.523 151.218 467.093 151.116 464.629 151.116C463.534 151.116 462.404 151.15 461.241 151.218C460.077 151.218 458.914 151.253 457.75 151.321C456.587 151.389 455.389 151.492 454.157 151.629C452.993 151.766 451.83 151.834 450.666 151.834C450.255 151.834 449.913 151.663 449.639 151.321C449.366 150.91 449.229 150.5 449.229 150.089C449.229 149.61 449.366 149.199 449.639 148.857C449.982 148.515 450.392 148.344 450.871 148.344C451.624 148.344 452.377 148.378 453.13 148.446C453.951 148.446 454.773 148.446 455.594 148.446C456.279 148.446 457.1 148.275 458.058 147.933C459.016 147.522 459.495 146.872 459.495 145.982V82.021C459.495 80.789 458.948 80.0361 457.853 79.7623C456.758 79.4201 455.526 79.2832 454.157 79.3516C452.856 79.4201 451.83 79.4543 451.077 79.4543C450.119 79.4543 449.639 78.9068 449.639 77.8116C449.639 77.2641 449.674 76.8192 449.742 76.477C449.879 76.1347 450.29 75.9636 450.974 75.9636C453.164 75.9636 455.355 76.0321 457.545 76.169C459.803 76.3059 462.028 76.3743 464.218 76.3743C465.792 76.3743 467.332 76.3743 468.838 76.3743C470.412 76.3743 471.952 76.3401 473.458 76.2716C474.416 76.2716 475.375 76.2374 476.333 76.169C477.359 76.0321 478.318 75.9636 479.207 75.9636C479.687 75.9636 480.063 76.1347 480.337 76.477C480.611 76.8192 480.747 77.1956 480.747 77.6063Z" fill="black"/>
<path d="M548.208 150.089C548.208 150.705 548.003 151.116 547.592 151.321C547.182 151.526 546.703 151.629 546.155 151.629C544.033 151.629 541.877 151.595 539.687 151.526C537.497 151.458 535.307 151.424 533.116 151.424C531.405 151.424 529.626 151.458 527.778 151.526C525.998 151.595 524.219 151.629 522.439 151.629C522.165 151.629 521.891 151.458 521.618 151.116C521.344 150.773 521.207 150.465 521.207 150.192C521.207 149.302 521.549 148.789 522.234 148.652C522.987 148.515 523.705 148.481 524.39 148.549C525.142 148.617 525.861 148.652 526.546 148.652C528.325 148.652 529.249 147.762 529.318 145.982C529.454 144.408 529.489 142.834 529.42 141.26C529.42 139.685 529.42 138.145 529.42 136.64V123.909C529.42 122.472 529.386 120.555 529.318 118.16C529.318 115.696 529.249 113.3 529.112 110.973C528.975 108.577 528.702 106.764 528.291 105.532C527.127 102.041 524.8 100.296 521.31 100.296C519.256 100.296 517.545 100.604 516.176 101.22C514.876 101.767 513.37 102.623 511.659 103.786C510.632 104.539 509.606 105.361 508.579 106.25C507.621 107.14 506.731 108.098 505.91 109.125C505.91 115.285 505.91 121.445 505.91 127.605C505.91 133.697 505.91 139.788 505.91 145.88C505.91 146.769 506.286 147.454 507.039 147.933C507.792 148.344 508.545 148.549 509.298 148.549C509.845 148.549 510.358 148.515 510.838 148.446C511.385 148.378 511.898 148.344 512.378 148.344C512.651 148.344 512.925 148.515 513.199 148.857C513.473 149.199 513.61 149.507 513.61 149.781C513.61 150.26 513.404 150.671 512.994 151.013C512.651 151.287 512.275 151.424 511.864 151.424C509.742 151.424 507.621 151.389 505.499 151.321C503.377 151.253 501.255 151.218 499.134 151.218C497.422 151.218 495.711 151.253 494 151.321C492.289 151.389 490.578 151.424 488.867 151.424C488.456 151.424 488.114 151.287 487.84 151.013C487.566 150.671 487.43 150.329 487.43 149.986C487.43 149.233 487.772 148.789 488.456 148.652C489.141 148.446 489.894 148.378 490.715 148.446C491.536 148.515 492.186 148.549 492.666 148.549C494.308 148.549 495.198 147.659 495.335 145.88C495.403 144.921 495.438 143.963 495.438 143.005C495.438 142.047 495.438 141.123 495.438 140.233C495.438 134.347 495.403 128.426 495.335 122.472C495.335 116.517 495.301 110.562 495.232 104.608C495.232 103.855 495.095 102.999 494.822 102.041C494.548 101.083 493.932 100.604 492.974 100.604C492.084 100.604 491.228 100.741 490.407 101.014C489.586 101.288 488.73 101.425 487.84 101.425C486.95 101.425 486.506 101.014 486.506 100.193C486.506 99.7139 486.574 99.4059 486.711 99.269C486.848 99.1321 487.156 99.0294 487.635 98.961C488.867 98.6188 490.133 98.3792 491.434 98.2423C492.734 98.037 494.034 97.7974 495.335 97.5236C496.498 97.2499 497.662 96.9761 498.826 96.7023C499.989 96.3601 501.153 96.189 502.316 96.189C503.138 96.189 503.719 96.4285 504.062 96.9076C504.404 97.3868 504.643 98.1396 504.78 99.1663C504.986 100.193 505.122 101.22 505.191 102.246C505.328 103.273 505.396 104.094 505.396 104.71C507.655 102.589 510.324 100.638 513.404 98.8583C516.484 97.0103 519.599 96.0863 522.747 96.0863C525.143 96.0863 527.538 96.3601 529.934 96.9076C532.329 97.4552 534.383 98.4819 536.094 99.9876C537.873 101.425 538.968 103.547 539.379 106.353C539.516 107.517 539.653 108.749 539.79 110.049C539.927 111.281 539.995 112.479 539.995 113.642C539.995 118.981 539.995 124.32 539.995 129.658C539.995 134.997 539.995 140.336 539.995 145.674C539.995 146.838 540.303 147.625 540.919 148.036C541.535 148.446 542.391 148.652 543.486 148.652C544.033 148.652 544.547 148.617 545.026 148.549C545.573 148.481 546.121 148.446 546.668 148.446C547.079 148.446 547.421 148.652 547.695 149.062C548.037 149.405 548.208 149.747 548.208 150.089Z" fill="black"/>
<path d="M601.475 138.59C601.475 138.727 601.441 138.864 601.373 139.001C601.373 139.138 601.339 139.275 601.27 139.412C600.654 140.37 599.662 141.533 598.293 142.902C596.924 144.271 595.76 145.332 594.802 146.085C592.68 147.591 590.079 148.891 586.999 149.986C583.988 151.013 581.113 151.526 578.375 151.526C573.174 151.526 568.554 150.397 564.515 148.138C560.546 145.88 557.431 142.765 555.173 138.796C552.914 134.757 551.785 130.137 551.785 124.936C551.785 119.871 552.811 115.114 554.865 110.665C556.918 106.216 560.135 102.623 564.515 99.885C566.5 98.653 568.691 97.6948 571.086 97.0103C573.55 96.3259 575.946 95.9836 578.273 95.9836C579.642 95.9836 580.976 96.1205 582.277 96.3943C583.646 96.6681 584.98 97.0788 586.281 97.6263C587.239 97.9685 588.403 98.4819 589.771 99.1663C591.14 99.8508 592.27 100.193 593.159 100.193C593.775 100.193 594.357 99.9534 594.905 99.4743C595.521 98.9268 596 98.653 596.342 98.653C596.616 98.653 596.821 98.7899 596.958 99.0636C597.095 99.7481 597.163 100.467 597.163 101.22C597.163 101.973 597.163 102.691 597.163 103.376C597.3 105.087 597.403 106.764 597.471 108.406C597.608 110.049 597.711 111.692 597.779 113.334C597.779 113.471 597.779 113.642 597.779 113.848C597.779 113.985 597.779 114.121 597.779 114.258C597.779 114.943 597.471 115.456 596.855 115.798C596.308 116.072 595.76 116.209 595.213 116.209C594.597 116.209 594.152 115.935 593.878 115.388C593.604 114.772 593.399 114.224 593.262 113.745C592.715 111.692 591.927 109.536 590.901 107.277C589.943 105.018 588.642 103.17 586.999 101.733C586.11 100.912 584.98 100.193 583.611 99.577C582.311 98.8925 581.011 98.5503 579.71 98.5503C576.562 98.5503 573.892 99.4059 571.702 101.117C569.512 102.76 567.732 104.916 566.363 107.585C564.995 110.186 564.002 112.958 563.386 115.901C562.77 118.844 562.462 121.616 562.462 124.217C562.462 126.749 562.736 129.385 563.283 132.122C563.899 134.86 564.858 137.393 566.158 139.72C567.459 142.047 569.17 143.963 571.291 145.469C573.413 146.906 576.014 147.625 579.094 147.625C582.106 147.625 584.878 147.18 587.41 146.29C590.011 145.332 592.407 143.792 594.597 141.67C595.281 141.054 595.897 140.37 596.445 139.617C596.992 138.864 597.608 138.145 598.293 137.461C598.703 137.05 599.114 136.845 599.525 136.845C600.072 136.845 600.517 137.016 600.859 137.358C601.27 137.632 601.475 138.043 601.475 138.59Z" fill="black"/>
<path d="M628.841 144.134C628.841 146.256 628.054 148.001 626.48 149.37C624.905 150.671 623.092 151.321 621.038 151.321C618.985 151.321 617.171 150.671 615.597 149.37C614.023 148.001 613.236 146.256 613.236 144.134C613.236 141.944 614.023 140.199 615.597 138.898C617.171 137.598 618.985 136.948 621.038 136.948C623.092 136.948 624.905 137.598 626.48 138.898C628.054 140.199 628.841 141.944 628.841 144.134Z" fill="#CE2C39"/>
<path d="M101.894 0.477036C108.84 0.770523 115.128 1.66405 121.643 3.28152C142.755 8.52527 161.643 20.852 175.202 38.2398C182.964 48.199 188.82 59.6714 192.29 71.7437C194.293 78.7289 195.46 85.4335 195.995 93.1296C196.145 95.2167 196.203 101.517 196.099 103.813C195.525 116.505 192.721 128.551 187.705 139.867C185.762 144.269 184.744 145.926 183.016 147.524C179.083 151.163 173.265 152.122 168.178 149.969C164.852 148.567 162.152 145.73 160.873 142.299C160.691 141.81 144.405 94.8188 133.024 61.9345C131.589 57.7995 130.826 56.4494 128.857 54.5646C127.213 52.9928 125.23 51.897 122.987 51.3231C121.741 50.997 120.75 50.8731 119.426 50.8731C117.162 50.8731 115.225 51.3166 113.262 52.2753C111.064 53.3515 109.095 55.132 107.816 57.2125C106.962 58.6083 107.51 57.0495 87.174 115.761C76.4452 146.721 67.2882 173.162 66.8186 174.519C66.3164 175.966 65.8012 177.33 65.5664 177.812C63.5902 181.908 59.6378 184.771 55.0985 185.404C54.0941 185.547 52.2157 185.547 51.2635 185.404C49.5286 185.149 47.8264 184.569 46.385 183.728C45.0023 182.932 42.1065 180.943 39.7846 179.214C36.041 176.423 32.943 173.762 29.5515 170.41C26.9622 167.853 25.1948 165.942 23.036 163.353C10.4679 148.313 2.68057 129.999 0.547854 110.452C0.117397 106.526 0 104.152 0 99.4951C0 94.8449 0.117397 92.4709 0.547854 88.538C2.10011 74.3199 6.64599 60.7084 13.9181 48.5121C18.3335 41.1095 23.3621 34.6983 29.5515 28.5872C37.078 21.1585 45.6154 15.0604 54.9876 10.4427C67.4904 4.2794 80.6911 0.966187 94.8114 0.450943C96.2266 0.398773 100.446 0.411804 101.894 0.477036Z" fill="#CE2C39"/>
<path d="M121.462 152.193C123.875 152.558 126.151 153.562 128.029 155.076C129.223 156.041 142.274 167.794 142.724 168.309C144.902 170.807 145.985 173.468 146.2 176.846C146.252 177.675 146.148 179.103 145.959 180.075C145.43 182.814 144.191 185.155 142.235 187.125C140.513 188.847 139.423 189.499 135.523 191.123C125.831 195.167 115.637 197.586 105.15 198.349C101.328 198.623 96.7365 198.663 95.4582 198.428C92.595 197.893 90.3579 196.765 88.3817 194.86C85.1142 191.71 83.5685 186.962 84.3642 182.488C84.8011 180.035 86.0142 177.629 87.7687 175.75C88.2057 175.287 109.611 156.067 110.766 155.108C112.716 153.484 115.448 152.369 118.129 152.095C118.925 152.017 120.614 152.062 121.462 152.193Z" fill="#CE2C39"/>
</svg>